<?xml version="1.0" encoding="utf-8"?>
<!-- Generator: Adobe Illustrator 15.1.0, SVG Export Plug-In  -->
<!DOCTYPE svg PUBLIC "-//W3C//DTD SVG 1.1//EN" "http://www.w3.org/Graphics/SVG/1.1/DTD/svg11.dtd" [
	<!ENTITY ns_flows "http://ns.adobe.com/Flows/1.0/">
]>
<svg version="1.1"
	 xmlns="http://www.w3.org/2000/svg" xmlns:xlink="http://www.w3.org/1999/xlink" xmlns:a="http://ns.adobe.com/AdobeSVGViewerExtensions/3.0/"
	 x="0px" y="0px" width="308px" height="52px" viewBox="-1.493 -2.003 308 52"
	 overflow="visible" enable-background="new -1.493 -2.003 308 52" xml:space="preserve">
<defs>
</defs>
<path d="M4.22,9.81c0-4.524-0.143-5.333-2.095-5.572l-1.524-0.19c-0.333-0.238-0.333-1,0.048-1.19
	c2.667-0.238,5.953-0.381,10.62-0.381c2.953,0,5.762,0.238,7.953,1.429c2.286,1.19,3.953,3.333,3.953,6.667
	c0,4.524-3.572,7-5.953,7.953c-0.238,0.286,0,0.762,0.238,1.143c3.81,6.144,6.334,9.953,9.572,12.667
	c0.81,0.714,2,1.238,3.286,1.333c0.238,0.095,0.286,0.477,0.048,0.667c-0.429,0.143-1.19,0.238-2.095,0.238
	c-4.048,0-6.477-1.19-9.858-6c-1.238-1.762-3.191-5.048-4.667-7.191c-0.714-1.047-1.477-1.524-3.381-1.524
	c-2.143,0-2.238,0.048-2.238,1.048v6c0,5,0.095,5.572,2.857,5.953l1,0.143c0.286,0.238,0.19,1.048-0.095,1.19
	c-2.143-0.095-3.762-0.143-5.667-0.143c-2,0-3.715,0.047-5.953,0.143c-0.286-0.143-0.381-0.857-0.095-1.19l1.191-0.143
	c2.762-0.333,2.857-0.952,2.857-5.953V9.81z M8.125,16.62c0,0.857,0,1.381,0.143,1.572c0.143,0.143,0.857,0.238,3.286,0.238
	c1.714,0,3.524-0.19,4.905-1.238c1.286-1,2.381-2.667,2.381-5.905c0-3.762-2.333-7.334-7.62-7.334c-2.952,0-3.095,0.19-3.095,1.524
	V16.62z"/>
<path d="M49.753,24.478c0,5.953-4.095,10.239-10.048,10.239c-5.477,0-9.763-3.857-9.763-9.81c0-6,4.524-10.287,10.144-10.287
	C45.419,14.62,49.753,18.621,49.753,24.478z M39.514,16.049c-3.143,0-5.477,3-5.477,8.239c0,4.333,1.953,9,6.144,9
	c4.19,0,5.477-4.381,5.477-8.048C45.658,21.192,44.039,16.049,39.514,16.049z"/>
<path d="M64.473,15.478c0.429,1.047,0.762,2.571,0.762,3.857c-0.19,0.333-0.905,0.428-1.143,0.143
	c-0.81-2.095-2.238-3.477-4.191-3.477c-1.857,0-3.047,1.191-3.047,2.905c0,1.953,2,3,3.667,3.953
	c2.524,1.429,4.858,3.048,4.858,6.429c0,3.619-3.334,5.429-6.858,5.429c-2.238,0-3.905-0.476-5.096-1.429
	c-0.381-0.905-0.667-3.238-0.571-4.81c0.238-0.286,0.857-0.333,1.095-0.047c0.81,2.619,2.333,4.905,5.048,4.905
	c1.715,0,3.191-1,3.191-3.048c0-2.191-1.905-3.381-3.667-4.381c-2.762-1.572-4.714-3.238-4.714-5.857
	c0-3.477,2.857-5.429,6.477-5.429C62.282,14.62,64.044,15.096,64.473,15.478z"/>
<path d="M73,21.859c-1.238,0-1.286,0.095-1.286,1.286c0,4.81,2.81,8.905,7.905,8.905c1.571,0,2.905-0.476,4.381-2.333
	c0.476-0.143,0.81,0.143,0.857,0.572c-1.571,3.238-5,4.429-7.477,4.429c-3.096,0-5.524-1.333-6.905-3.143
	c-1.429-1.857-2-4.096-2-6.191c0-5.857,3.857-10.763,9.572-10.763c4.096,0,6.763,2.81,6.763,5.667c0,0.667-0.095,1.048-0.19,1.238
	c-0.143,0.286-0.81,0.333-2.81,0.333H73z M75.952,20.43c3.524,0,4.572-0.19,4.953-0.477c0.143-0.095,0.286-0.286,0.286-0.905
	c0-1.333-0.905-3-3.667-3c-2.81,0-5.238,2.572-5.286,4.143c0,0.095,0,0.238,0.333,0.238H75.952z"/>
<path d="M90.337,20.382c0-1.857,0-2.095-1.286-2.953l-0.429-0.286c-0.19-0.19-0.19-0.714,0.047-0.857
	c1.096-0.381,3.81-1.619,4.763-2.333c0.19,0,0.428,0.095,0.523,0.333c-0.095,1.095-0.095,1.81-0.095,2.238
	c0,0.286,0.19,0.524,0.524,0.524c2-1.238,4.238-2.429,6.667-2.429c3.953,0,5.572,2.714,5.572,5.905v8.191
	c0,3.429,0.095,3.905,1.81,4.143l1.047,0.143c0.333,0.238,0.238,1.048-0.095,1.19c-1.428-0.095-2.81-0.143-4.476-0.143
	c-1.715,0-3.144,0.047-4.429,0.143c-0.333-0.143-0.429-0.952-0.095-1.19l0.905-0.143c1.762-0.286,1.81-0.714,1.81-4.143v-7.096
	c0-2.714-1.238-4.715-4.477-4.715c-1.81,0-3.381,0.762-4.048,1.667c-0.619,0.81-0.714,1.477-0.714,2.857v7.286
	c0,3.429,0.095,3.857,1.81,4.143l0.857,0.143c0.333,0.238,0.238,1.048-0.095,1.19c-1.286-0.095-2.667-0.143-4.333-0.143
	c-1.714,0-3.143,0.047-4.477,0.143c-0.333-0.143-0.429-0.952-0.095-1.19l1-0.143c1.762-0.238,1.81-0.714,1.81-4.143V20.382z"/>
<path d="M119.535,17.287c-0.81,0-0.81,0.095-0.81,1.381v10.048c0,3.429,0.095,4,1.81,4.143l1.714,0.143
	c0.333,0.238,0.238,1.048-0.095,1.19c-2.143-0.095-3.524-0.143-5.191-0.143c-1.714,0-3.143,0.047-4.572,0.143
	c-0.333-0.143-0.429-0.952-0.095-1.19l1.095-0.143c1.762-0.238,1.81-0.714,1.81-4.143V18.668c0-1.286,0-1.381-0.952-1.381h-1.667
	c-0.286-0.19-0.333-0.619-0.143-0.905l2.048-1c0.381-0.19,0.714-0.476,0.714-0.952c0-2.762,0.333-5.715,1.477-8.382
	C117.868,3.333,120.535,0,125.249,0c2.524,0,4.667,1.143,4.667,2.857c0,0.952-0.905,1.714-1.81,1.714
	c-0.524,0-0.81-0.19-1.143-0.571c-0.905-1.048-2.238-2.096-3.81-2.096c-1.477,0-2.667,0.905-3.381,2.619
	c-0.857,2.191-1.047,5.667-1.047,8.048v1.381c0,1.286,0,1.333,0.81,1.333h5.429c0.524,0.477,0.19,1.81-0.333,2H119.535z"/>
<path d="M130.68,21.859c-1.238,0-1.286,0.095-1.286,1.286c0,4.81,2.81,8.905,7.905,8.905c1.572,0,2.905-0.476,4.381-2.333
	c0.476-0.143,0.81,0.143,0.857,0.572c-1.572,3.238-5,4.429-7.477,4.429c-3.095,0-5.524-1.333-6.905-3.143
	c-1.429-1.857-2-4.096-2-6.191c0-5.857,3.857-10.763,9.572-10.763c4.095,0,6.762,2.81,6.762,5.667c0,0.667-0.095,1.048-0.19,1.238
	c-0.143,0.286-0.81,0.333-2.81,0.333H130.68z M133.633,20.43c3.524,0,4.572-0.19,4.953-0.477c0.143-0.095,0.286-0.286,0.286-0.905
	c0-1.333-0.905-3-3.667-3c-2.81,0-5.239,2.572-5.286,4.143c0,0.095,0,0.238,0.333,0.238H133.633z"/>
<path d="M151.066,28.716c0,3.429,0.095,3.905,1.81,4.143l1.143,0.143c0.333,0.238,0.238,1.048-0.095,1.19
	c-1.571-0.095-2.953-0.143-4.619-0.143c-1.714,0-3.143,0.047-4.572,0.143c-0.333-0.143-0.429-0.952-0.095-1.19l1.095-0.143
	c1.762-0.238,1.81-0.714,1.81-4.143V7.191c0-2.81-0.047-3.095-1.476-3.953l-0.477-0.286c-0.238-0.143-0.238-0.81,0-0.953
	c1.191-0.381,3.429-1.095,5.144-2c0.19,0,0.381,0.095,0.476,0.286c-0.048,1.429-0.143,3.81-0.143,5.905V28.716z"/>
<path d="M175.308,27.097c0,3.762,0.048,5.524,1.381,5.524c0.523,0,1.333-0.238,2.047-0.477c0.333,0.095,0.381,1.286-0.047,1.524
	c-2,0.286-4.953,1-6.286,1.524c-0.286,0-0.524-0.143-0.524-0.381v-0.81c0-0.714,0-1.286-0.095-1.476h-0.19
	c-2.096,1.429-3.715,2.19-6,2.19c-5.286,0-8.81-4.143-8.81-9.144c0-6.667,5.048-10.953,11.524-10.953
	c1.619,0,2.667,0.238,3.191,0.429c0.238,0,0.286-0.286,0.286-0.667V7.191c0-2.81-0.048-3.095-1.477-3.953l-0.476-0.286
	c-0.238-0.143-0.238-0.81,0-0.953c1.19-0.381,3.429-1.095,5.143-2c0.191,0,0.381,0.095,0.477,0.286
	c-0.048,1.429-0.143,3.81-0.143,5.905V27.097z M171.784,19.954c0-0.952-0.19-1.381-0.524-1.857c-0.714-1-2.143-2-4-2
	c-4.333,0-6.572,3.762-6.572,7.906c0,4.333,2.429,8.429,7.096,8.429c1.286,0,2.905-0.572,3.667-1.333
	c0.286-0.286,0.333-1,0.333-1.762V19.954z"/>
<path d="M195.316,7.667C194.221,5,193.507,4,191.459,3.762l-0.857-0.095c-0.333-0.286-0.286-0.953,0.095-1.19
	c1.381,0.095,2.905,0.143,4.953,0.143c2.096,0,3.762-0.047,5.763-0.143c0.333,0.19,0.428,0.905,0.095,1.19l-0.714,0.095
	c-1.81,0.238-2.191,0.524-2.238,0.905c0.095,0.476,0.905,3.048,2.381,6.667c2.191,5.524,4.381,11.001,6.763,16.43
	c1.476-3.144,3.477-8.048,4.572-10.572c1.381-3.238,3.619-8.62,4.429-10.667c0.381-1,0.429-1.524,0.429-1.857
	s-0.476-0.714-2.143-0.905l-0.857-0.095c-0.333-0.286-0.238-1,0.096-1.19c1.333,0.095,3.143,0.143,4.953,0.143
	c1.571,0,3.048-0.047,4.619-0.143c0.333,0.19,0.333,0.952,0.095,1.19l-1.429,0.095c-1.143,0.095-1.857,0.667-2.476,1.667
	c-1.333,2.238-3.191,6.095-5.334,10.953l-2.571,5.857c-1.905,4.381-4.144,9.905-4.953,12.43c-0.143,0.095-0.333,0.143-0.523,0.143
	c-0.238,0-0.477-0.047-0.714-0.143c-0.524-2-1.381-4.334-2.191-6.334L195.316,7.667z"/>
<path d="M224.181,21.859c-1.238,0-1.286,0.095-1.286,1.286c0,4.81,2.81,8.905,7.905,8.905c1.571,0,2.905-0.476,4.381-2.333
	c0.477-0.143,0.81,0.143,0.857,0.572c-1.571,3.238-5,4.429-7.477,4.429c-3.096,0-5.524-1.333-6.905-3.143
	c-1.429-1.857-2-4.096-2-6.191c0-5.857,3.857-10.763,9.572-10.763c4.096,0,6.763,2.81,6.763,5.667c0,0.667-0.095,1.048-0.191,1.238
	c-0.143,0.286-0.81,0.333-2.81,0.333H224.181z M227.134,20.43c3.524,0,4.572-0.19,4.953-0.477c0.143-0.095,0.286-0.286,0.286-0.905
	c0-1.333-0.905-3-3.667-3c-2.81,0-5.238,2.572-5.286,4.143c0,0.095,0,0.238,0.333,0.238H227.134z"/>
<path d="M241.519,20.382c0-1.857,0-2.095-1.286-2.953l-0.429-0.286c-0.19-0.19-0.19-0.714,0.047-0.857
	c1.096-0.381,3.62-1.619,4.81-2.333c0.238,0.047,0.381,0.143,0.381,0.333v2.762c0,0.238,0.048,0.381,0.143,0.429
	c1.667-1.381,3.477-2.857,5.238-2.857c1.191,0,2.143,0.762,2.143,1.905c0,1.572-1.286,2.191-2.048,2.191
	c-0.476,0-0.714-0.143-1.047-0.333c-0.714-0.476-1.429-0.762-2.096-0.762c-0.762,0-1.333,0.429-1.714,0.953
	c-0.476,0.667-0.619,2.048-0.619,3.667v6.477c0,3.429,0.095,4,1.905,4.143l1.715,0.143c0.333,0.238,0.238,1.048-0.095,1.19
	c-2.238-0.095-3.62-0.143-5.286-0.143c-1.715,0-3.144,0.047-4.381,0.143c-0.333-0.143-0.429-0.952-0.095-1.19l0.905-0.143
	c1.762-0.286,1.81-0.714,1.81-4.143V20.382z"/>
<path d="M260.38,28.716c0,3.429,0.095,3.905,1.81,4.143l1.143,0.143c0.333,0.238,0.238,1.048-0.095,1.19
	c-1.572-0.095-2.953-0.143-4.62-0.143c-1.714,0-3.143,0.047-4.572,0.143c-0.333-0.143-0.429-0.952-0.095-1.19l1.095-0.143
	c1.762-0.238,1.81-0.714,1.81-4.143V7.191c0-2.81-0.047-3.095-1.476-3.953l-0.476-0.286c-0.238-0.143-0.238-0.81,0-0.953
	c1.19-0.381,3.429-1.095,5.143-2c0.19,0,0.381,0.095,0.476,0.286c-0.047,1.429-0.143,3.81-0.143,5.905V28.716z"/>
<path d="M275.716,24.192c0.714-0.238,0.81-0.667,0.81-1.381l0.048-2.19c0.047-1.762-0.524-4.143-3.477-4.143
	c-1.333,0-2.953,0.667-3.048,2.143c-0.047,0.762-0.095,1.333-0.476,1.619c-0.714,0.571-2,0.905-2.715,0.905
	c-0.428,0-0.667-0.238-0.667-0.667c0-2.476,5.381-5.857,8.858-5.857c3.429,0,5.096,2,4.953,5.572l-0.286,8.286
	c-0.095,2.191,0.333,4.144,2.19,4.144c0.477,0,0.905-0.143,1.19-0.286c0.238-0.143,0.477-0.333,0.619-0.333
	c0.19,0,0.333,0.286,0.333,0.619c0,0.238-1.667,2.095-4,2.095c-1.143,0-2.286-0.429-3.095-1.476
	c-0.19-0.286-0.476-0.667-0.762-0.667c-0.333,0-0.905,0.429-1.857,0.953c-1.048,0.571-2.096,1.19-3.429,1.19
	c-1.381,0-2.524-0.381-3.334-1.095c-0.905-0.81-1.476-2-1.476-3.333c0-1.857,0.905-2.953,3.953-4.048L275.716,24.192z
	 M272.764,32.574c0.953,0,2.429-0.714,2.905-1.19c0.571-0.571,0.571-1.238,0.619-2.238l0.095-2.81c0-0.524-0.191-0.619-0.477-0.619
	s-1.095,0.19-1.952,0.476c-2.81,0.953-4.191,1.667-4.191,3.524C269.764,30.526,270.335,32.574,272.764,32.574z"/>
<path d="M304.912,16.334c0.524,0.238,0.429,1.857-0.286,1.953h-3.429c0.095,0.81,0.095,1.619,0.095,2.429
	c0,3.286-1.953,7.572-8,7.572c-0.857,0-1.524-0.095-2.095-0.143c-0.572,0.333-2.096,1.238-2.096,2.619c0,1.095,1.095,2,3.333,2
	c1.619,0,3.572-0.143,5.667-0.143c2.667,0,6.667,0.476,6.667,5.238c0,5.191-5.667,9-11.858,9c-5.858,0-7.906-3.143-7.906-5.524
	c0-0.762,0.191-1.381,0.524-1.762c0.81-0.857,2.143-2.095,3.239-3.19c0.428-0.429,0.81-0.857,0.381-1.143
	c-1.857-0.476-3.477-2.095-3.477-3.762c0-0.238,0.19-0.429,0.714-0.81c0.81-0.524,1.714-1.333,2.524-2.191
	c0.238-0.286,0.476-0.667,0.476-0.905c-1.619-0.857-3.571-2.714-3.571-5.762c0-4.096,3.524-7.191,7.762-7.191
	c1.81,0,3.477,0.476,4.572,0.953c1.524,0.667,1.857,0.762,2.905,0.762H304.912z M294.959,35.574c-1.523,0-3.429,0.095-4.095,0.523
	c-1.143,0.714-2.286,2.191-2.286,4c0,2.572,2.048,4.715,6.381,4.715c4.239,0,7.048-2.381,7.048-5.096c0-2.905-2-4.143-5.429-4.143
	H294.959z M297.912,21.954c0-3.238-1.333-5.953-4.238-5.953c-2.286,0-4,2.096-4,5.334c0,3.381,2.047,5.572,4.333,5.572
	C296.579,26.907,297.912,24.859,297.912,21.954z"/>
</svg>
